<?xml version="1.0" encoding="UTF-8"?>
<svg xmlns:xlink="http://www.w3.org/1999/xlink" width="523px" height="55px" viewBox="0 0 523 55" version="1.1"
     xmlns="http://www.w3.org/2000/svg">
    <!-- Generator: Sketch 51.1 (57501) - http://www.bohemiancoding.com/sketch -->
    <title>Mirrorr Logo PDF</title>
    <desc>Created with Sketch.</desc>
    <defs></defs>
    <g id="Mirrorr-Logo-PDF" stroke="none" stroke-width="1" fill="none" fill-rule="evenodd">
        <polygon id="Fill-1" fill="#221F20" points="91.12 53.816 101.645 53.816 101.645 1.802 91.12 1.802"></polygon>
        <polygon id="Fill-2" fill="#221F20" points="44.197 53.816 54.725 53.816 54.725 1.802 44.197 1.802"></polygon>
        <polygon id="Fill-3" fill="#221F20" points="0.531 53.816 11.058 53.816 11.058 1.802 0.531 1.802"></polygon>
        <polygon id="Fill-4" fill="#221F20" points="22.365 53.815 32.891 53.815 32.891 25 22.365 25"></polygon>
        <g id="Group-19" transform="translate(138.000000, 0.000000)" fill="#221F20">
            <path d="M10.4331,25.3525 L18.4651,25.3525 C22.2581,25.3525 25.0161,24.7555 26.7311,23.5595 C28.4471,22.3645 29.3051,20.5965 29.3051,18.2555 C29.3051,15.7615 28.4961,13.9035 26.8861,12.6815 C25.2751,11.4605 22.4691,10.8495 18.4651,10.8495 L10.4331,10.8495 L10.4331,25.3525 Z M0.1421,53.8155 L0.1421,1.8015 L21.2721,1.8015 C23.4571,1.8015 25.6401,2.0365 27.8241,2.5045 C30.0091,2.9735 31.9681,3.7915 33.7101,4.9615 C35.4521,6.1305 36.8801,7.7045 37.9981,9.6805 C39.1191,11.6555 39.6741,14.1755 39.6741,17.2435 C39.6741,19.1135 39.4421,20.9065 38.9761,22.6235 C38.5081,24.3375 37.7921,25.9105 36.8291,27.3415 C35.8681,28.7725 34.6181,30.0305 33.0871,31.1235 C31.5521,32.2155 29.7201,33.0735 27.5901,33.6965 L40.9231,53.8155 L28.9931,53.8155 L16.1261,34.3205 L10.4331,34.3205 L10.4331,53.8155 L0.1421,53.8155 Z"
                  id="Fill-5"></path>
            <path d="M83.4995,25.3525 L91.5315,25.3525 C95.3245,25.3525 98.0805,24.7555 99.7975,23.5595 C101.5135,22.3645 102.3715,20.5965 102.3715,18.2555 C102.3715,15.7615 101.5635,13.9035 99.9535,12.6815 C98.3405,11.4605 95.5325,10.8495 91.5315,10.8495 L83.4995,10.8495 L83.4995,25.3525 Z M73.2055,53.8155 L73.2055,1.8015 L94.3355,1.8015 C96.5205,1.8015 98.7055,2.0365 100.8875,2.5045 C103.0715,2.9735 105.0335,3.7915 106.7765,4.9615 C108.5165,6.1305 109.9465,7.7045 111.0635,9.6805 C112.1805,11.6555 112.7425,14.1755 112.7425,17.2435 C112.7425,19.1135 112.5085,20.9065 112.0385,22.6235 C111.5705,24.3375 110.8565,25.9105 109.8955,27.3415 C108.9335,28.7725 107.6865,30.0305 106.1535,31.1235 C104.6205,32.2155 102.7855,33.0735 100.6545,33.6965 L113.9895,53.8155 L102.0595,53.8155 L89.1945,34.3205 L83.4995,34.3205 L83.4995,53.8155 L73.2055,53.8155 Z"
                  id="Fill-7"></path>
            <path d="M156.6426,40.168 C157.7866,41.833 159.1786,43.159 160.8166,44.145 C162.4516,45.133 164.3636,45.629 166.5446,45.629 C168.7306,45.629 170.6656,45.133 172.3556,44.145 C174.0426,43.159 175.4606,41.833 176.6066,40.168 C177.7486,38.506 178.6076,36.595 179.1806,34.437 C179.7496,32.28 180.0366,30.058 180.0366,27.772 C180.0366,25.482 179.7496,23.26 179.1806,21.102 C178.6076,18.947 177.7486,17.035 176.6066,15.37 C175.4606,13.708 174.0426,12.382 172.3556,11.394 C170.6656,10.408 168.7306,9.913 166.5446,9.913 C164.3636,9.913 162.4516,10.408 160.8166,11.394 C159.1786,12.382 157.7866,13.708 156.6426,15.37 C155.4976,17.035 154.6396,18.947 154.0706,21.102 C153.4966,23.26 153.2106,25.482 153.2106,27.772 C153.2106,30.058 153.4966,32.28 154.0706,34.437 C154.6396,36.595 155.4976,38.506 156.6426,40.168 M156.0196,52.568 C153.0026,50.957 150.5066,48.877 148.5346,46.33 C146.5566,43.783 145.0756,40.883 144.0866,37.636 C143.0986,34.385 142.6086,31.099 142.6086,27.772 C142.6086,24.443 143.0986,21.156 144.0866,17.906 C145.0756,14.657 146.5566,11.758 148.5346,9.211 C150.5066,6.665 153.0026,4.611 156.0196,3.051 C159.0336,1.492 162.5436,0.71 166.5446,0.71 C170.6016,0.71 174.1346,1.492 177.1516,3.051 C180.1656,4.611 182.6886,6.665 184.7146,9.211 C186.7446,11.758 188.2496,14.657 189.2386,17.906 C190.2256,21.156 190.7196,24.443 190.7196,27.772 C190.7196,31.099 190.2256,34.385 189.2386,37.636 C188.2496,40.883 186.7446,43.783 184.7146,46.33 C182.6886,48.877 180.1656,50.945 177.1516,52.527 C174.1346,54.115 170.6016,54.907 166.5446,54.907 C162.5436,54.907 159.0336,54.126 156.0196,52.568"
                  id="Fill-9"></path>
            <path d="M235.0117,25.3525 L243.0437,25.3525 C246.8397,25.3525 249.5927,24.7555 251.3087,23.5595 C253.0257,22.3645 253.8827,20.5965 253.8827,18.2555 C253.8827,15.7615 253.0777,13.9035 251.4657,12.6815 C249.8547,11.4605 247.0447,10.8495 243.0437,10.8495 L235.0117,10.8495 L235.0117,25.3525 Z M224.7177,53.8155 L224.7177,1.8015 L245.8507,1.8015 C248.0327,1.8015 250.2187,2.0365 252.4017,2.5045 C254.5837,2.9735 256.5447,3.7915 258.2887,4.9615 C260.0297,6.1305 261.4597,7.7045 262.5757,9.6805 C263.6957,11.6555 264.2537,14.1755 264.2537,17.2435 C264.2537,19.1135 264.0207,20.9065 263.5527,22.6235 C263.0837,24.3375 262.3687,25.9105 261.4087,27.3415 C260.4447,28.7725 259.1987,30.0305 257.6647,31.1235 C256.1307,32.2155 254.2977,33.0735 252.1687,33.6965 L265.5037,53.8155 L253.5707,53.8155 L240.7027,34.3205 L235.0117,34.3205 L235.0117,53.8155 L224.7177,53.8155 Z"
                  id="Fill-11"></path>
            <path d="M308.0771,25.3525 L316.1091,25.3525 C319.9041,25.3525 322.6591,24.7555 324.3751,23.5595 C326.0911,22.3645 326.9481,20.5965 326.9481,18.2555 C326.9481,15.7615 326.1411,13.9035 324.5301,12.6815 C322.9201,11.4605 320.1121,10.8495 316.1091,10.8495 L308.0771,10.8495 L308.0771,25.3525 Z M297.7831,53.8155 L297.7831,1.8015 L318.9161,1.8015 C321.1011,1.8015 323.2841,2.0365 325.4681,2.5045 C327.6481,2.9735 329.6121,3.7915 331.3541,4.9615 C333.0961,6.1305 334.5251,7.7045 335.6451,9.6805 C336.7621,11.6555 337.3181,14.1755 337.3181,17.2435 C337.3181,19.1135 337.0841,20.9065 336.6191,22.6235 C336.1501,24.3375 335.4341,25.9105 334.4731,27.3415 C333.5121,28.7725 332.2641,30.0305 330.7291,31.1235 C329.1961,32.2155 327.3641,33.0735 325.2321,33.6965 L338.5671,53.8155 L326.6361,53.8155 L313.7701,34.3205 L308.0771,34.3205 L308.0771,53.8155 L297.7831,53.8155 Z"
                  id="Fill-13"></path>
            <polygon id="Fill-15"
                     points="359.3643 16.0845 359.3643 4.3935 355.1023 4.3935 355.1023 1.8015 366.5143 1.8015 366.5143 4.3935 362.2773 4.3935 362.2773 16.0845"></polygon>
            <polygon id="Fill-17"
                     points="370.5527 16.0845 370.5527 1.8015 373.5047 1.8015 377.7247 11.3115 381.5357 1.8015 384.5137 1.8015 384.5137 16.0845 381.6647 16.0845 381.6647 8.0975 378.2157 16.1715 377.1877 16.1715 373.3977 8.0125 373.3977 16.0845"></polygon>
        </g>
    </g>
</svg>